<svg xmlns="http://www.w3.org/2000/svg" viewBox="0 0 64 64" role="img" aria-label="Kolex">
  <defs>
    <linearGradient id="k" x1="0" y1="0" x2="0" y2="1">
      <stop offset="0" stop-color="#16E0A3"/>
      <stop offset="1" stop-color="#0FB686"/>
    </linearGradient>
  </defs>
  <path fill="url(#k)" d="M32 6C18.7 6 8 14.6 8 25.6c0 5.9 3.1 11.2 8 14.8L13 56l13.4-7.2c1.8.3 3.7.4 5.6.4 13.3 0 24-8.6 24-19.6S45.3 6 32 6Z"/>
  <circle cx="32" cy="25.6" r="12.5" fill="#FFC53D"/>
  <circle cx="32" cy="25.6" r="12.5" fill="none" stroke="#0F1216" stroke-opacity=".12" stroke-width="2"/>
  <path fill="#0F1216" d="M33.4 14.6v2.1c2.4.3 4.1 1.5 4.6 3.6.1.6-.3 1.1-.9 1.1h-1.5c-.5 0-.8-.3-1-.8-.3-.8-1-1.3-2.1-1.4v4.4c2.9.7 5.2 1.7 5.2 4.8 0 2.7-2 4.4-5.2 4.7v2.1c0 .5-.4.9-.9.9h-.4c-.5 0-.9-.4-.9-.9v-2.1c-2.7-.3-4.6-1.7-5-4-.1-.6.3-1.1.9-1.1h1.5c.5 0 .8.3 1 .8.3.9 1.1 1.4 2.5 1.6v-4.7c-2.8-.7-5-1.7-5-4.6 0-2.6 2-4.3 5-4.6v-2.1c0-.5.4-.9.9-.9h.4c.5 0 .9.4.9.9Zm-2.2 6.5c0-1-.6-1.6-1.8-1.8v3.5c1.2-.3 1.8-.8 1.8-1.7Zm2.2 9.4c1.3-.2 2-.8 2-1.8s-.7-1.5-2-1.8v3.6Z"/>
</svg>
